PathFileType	4	(X/Y/Z)	C:\Users\chris\Documents\GitHub\baseballds\vids\pitch2_Sports2D\pitch2_Sports2D_px_person00.trc
DataRate	CameraRate	NumFrames	NumMarkers	Units	OrigDataRate	OrigDataStartFrame	OrigNumFrames
30	30	9	22	m	30	212	243
Frame#	Time	Hip			RHip			RKnee			RAnkle			RBigToe			RSmallToe			RHeel			LHip			LKnee			LAnkle			LBigToe			LSmallToe			LHeel			Neck			Head			Nose			RShoulder			RElbow			RWrist			LShoulder			LElbow			LWrist		
		X1	Y1	Z1	X2	Y2	Z2	X3	Y3	Z3	X4	Y4	Z4	X5	Y5	Z5	X6	Y6	Z6	X7	Y7	Z7	X8	Y8	Z8	X9	Y9	Z9	X10	Y10	Z10	X11	Y11	Z11	X12	Y12	Z12	X13	Y13	Z13	X14	Y14	Z14	X15	Y15	Z15	X16	Y16	Z16	X17	Y17	Z17	X18	Y18	Z18	X19	Y19	Z19	X20	Y20	Z20	X21	Y21	Z21	X22	Y22	Z22
212	7.066666666666666	515.333085860275	977.6056347624393	0.0	560.4544923256882	977.5629793527033	0.0	574.0260881293742	1195.2224332202657	0.0	453.3483792102035	1284.6895774522645	0.0	399.94366947069705	1394.4058976618644	0.0	416.71515807290456	1388.5963220699018	0.0	418.9898888275973	1279.88782423069	0.0	471.86346163980295	997.5908989947737	0.0	511.54140317083125	1188.8467395633847	0.0	543.5522363726275	1329.11958291835	0.0	563.1042247410204	1352.340551973507	0.0	546.3163511828654	1353.7320732419557	0.0	546.0137653916469	1356.5360912529538	0.0	451.42034904337135	786.9832758144845	0.0	422.3867357867221	695.1785474982746	0.0	426.47286649898	750.0116735816916	0.0	524.1088115573002	798.3507190050253	0.0	510.2909570924453	906.8420893938663	0.0	418.2062909915811	935.3533611108205	0.0	406.1426824629356	832.8369624123238	0.0	418.7597680786033	958.3468287975029	0.0	401.4266657235221	937.2065850644369	0.0
213	7.1	514.6594334971048	958.0809731351941	0.0	558.5305828664603	958.185453191021	0.0	595.535488890609	1167.9782519831138	0.0	493.29126517669454	1237.5698545674563	0.0	448.1732291783296	1344.034117046453	0.0	474.2803842568675	1334.4753197082096	0.0	461.17641170482506	1228.5041939539585	0.0	472.1043949725831	978.3743360498735	0.0	513.0783951684532	1172.596626572699	0.0	542.940354165712	1328.8003487665358	0.0	563.3223681916224	1352.0649794841825	0.0	542.3184585094953	1354.5705236033948	0.0	545.6478741490519	1357.8174331504229	0.0	451.2066626051037	770.7698337575933	0.0	430.96249262697813	678.6174037828439	0.0	429.0966037689177	732.6606971658334	0.0	514.5953740931512	789.1552447450188	0.0	466.9183000233327	915.2000061001934	0.0	374.4949609382773	974.8885765624947	0.0	406.23542868229333	805.8335009542088	0.0	419.8694222407123	916.8277690491061	0.0	378.2046766846127	921.0557489367401	0.0
214	7.133333333333333	509.85527802561467	950.4843280993721	0.0	554.0432571776685	949.9713095121887	0.0	614.2951093751652	1138.0885582469568	0.0	555.6363096661762	1188.6820812424485	0.0	542.2187954161047	1291.1713023620405	0.0	571.57283746019	1273.3156582078338	0.0	532.373463604632	1175.8034872526093	0.0	469.8659355958318	969.723558106608	0.0	511.5239503252477	1165.9495947418104	0.0	542.438504540411	1326.2657400337	0.0	560.4665034572527	1349.7954623366154	0.0	537.3980414534552	1353.6121466947452	0.0	544.2614815431853	1352.0175917543902	0.0	450.63436617044755	759.1130407056366	0.0	435.7161504637105	666.2820582004213	0.0	431.38065302021727	719.8841045074182	0.0	510.7482754315557	782.5323195202412	0.0	453.29031240972483	911.4520852641818	0.0	363.5945413571874	990.8811315383067	0.0	404.274867644145	788.6101978356504	0.0	421.01029526795537	876.8714561990596	0.0	355.59807352508295	901.4633734961617	0.0
215	7.166666666666667	502.9004951867821	949.0204038645401	0.0	548.6401907244983	946.9816246895139	0.0	626.0260589644927	1111.8215740298447	0.0	620.0890953471556	1138.0468459007009	0.0	652.7931764470771	1225.1273998763454	0.0	674.8960538120969	1200.8254977817278	0.0	608.8377332417083	1124.37609782051	0.0	465.5101975173429	967.9226052733906	0.0	507.9788595072605	1167.2152956039408	0.0	543.0098707623351	1325.4763882313264	0.0	557.4801063367208	1346.4258013142085	0.0	536.0512498627315	1351.95652032519	0.0	544.292295959633	1347.7600406540537	0.0	449.11941223084034	751.4910696871216	0.0	435.35339833395943	657.871771700882	0.0	431.40978028272457	711.3425521552608	0.0	509.73563727700923	779.529040722477	0.0	461.0861400349571	900.4375502753793	0.0	369.3585255782466	977.7001367991242	0.0	400.9855713569092	778.9929680965413	0.0	421.64688311593096	844.8343497144926	0.0	331.5948186072639	875.8464568634422	0.0
216	7.2	495.66339151177635	947.5813186983863	0.0	542.1069177652346	943.7264990360183	0.0	632.9261562659796	1098.8325234359113	0.0	670.2662438865646	1087.7626559364126	0.0	741.3641219975264	1148.6867959358192	0.0	751.5575709108982	1124.2091950985564	0.0	668.1988228278678	1075.6500609186626	0.0	458.3377960707621	967.7101381615946	0.0	504.3730807570587	1169.303817349632	0.0	544.34949970525	1326.1976096233934	0.0	557.8297271984795	1345.5488345273354	0.0	539.0374920788433	1351.4376140369075	0.0	545.9759806746213	1347.0484999933137	0.0	446.74692370121545	745.5018051167694	0.0	431.35415725785606	651.8459657283765	0.0	429.99445581379166	706.1364336491561	0.0	509.88765167379097	779.7387548127696	0.0	481.6592559451291	886.4668440222313	0.0	389.13744348636243	942.2839634496011	0.0	397.52835434948815	772.71115757941	0.0	415.85557437016865	826.1331586394808	0.0	309.1346959043477	854.5790242432354	0.0
217	7.233333333333333	488.3583303856698	945.0856484858385	0.0	533.6663374917036	940.1012498096751	0.0	637.2394266947445	1097.0978386316117	0.0	711.986938792243	1050.2884454953105	0.0	803.598418794161	1094.0176436906127	0.0	805.3766047418994	1073.6322532834638	0.0	716.8963845418023	1039.1946428762492	0.0	448.4440827834276	966.5351228306545	0.0	501.7048133751946	1168.3090668105335	0.0	545.3955301599742	1326.110424066816	0.0	560.7632223422889	1345.5958767735951	0.0	542.256198096921	1350.5691861742512	0.0	547.7593477872485	1347.226787107911	0.0	443.30990073196847	740.2699743928188	0.0	426.2893860092316	647.8075156005478	0.0	429.3652943467766	703.7154729791495	0.0	511.5485300118069	781.8483169176084	0.0	508.6659516141455	882.0769583884467	0.0	426.06027464516995	912.8393089794828	0.0	392.624033996598	768.507769703492	0.0	398.8161882776006	821.8136815026763	0.0	289.58000128749137	843.3487444833308	0.0
218	7.266666666666667	480.90646052499045	942.818724320286	0.0	523.8960639739161	937.5790381791473	0.0	636.2243621188923	1096.1835752357335	0.0	749.4258253459589	1038.7489115372366	0.0	843.7690009796099	1082.1828384257703	0.0	843.443385940373	1065.4805065925937	0.0	762.1484112490172	1028.20647530345	0.0	438.7292351195554	964.3866199034183	0.0	500.66142239227105	1165.055460927533	0.0	546.2746184201284	1324.5561562499781	0.0	561.9915873127736	1343.4126462386976	0.0	542.4006103494316	1348.3626793238705	0.0	549.9111069538502	1346.7179289363103	0.0	438.2854782475737	737.7533090001726	0.0	421.8085411787344	646.2625089862798	0.0	430.11375343022655	703.8440590228653	0.0	513.1203171682625	783.9439401372842	0.0	534.3652342890023	889.571601676904	0.0	477.2063567495802	908.4785363756611	0.0	383.0806943701713	767.166038783341	0.0	371.9749916639961	828.2130752957086	0.0	271.17630905156534	842.3320654067523	0.0
219	7.3	475.2294110915818	942.3603306857904	0.0	515.6000765737665	937.0155881552146	0.0	624.8889686492087	1092.1712994669997	0.0	770.7132797971761	1055.038651408481	0.0	852.4664806858717	1106.4694189365262	0.0	854.8873140642359	1089.3129252055978	0.0	791.1766213990135	1047.188142510844	0.0	433.6986609117197	963.4623692340472	0.0	501.5259268766553	1160.729713591673	0.0	548.2228846772164	1321.8434932481819	0.0	558.6159635458092	1339.6792135994692	0.0	540.302910740304	1346.0179607518685	0.0	553.979290999496	1345.136848718272	0.0	431.3220252045457	738.7028611736149	0.0	418.17887583297875	646.4493173115259	0.0	430.4121995280702	705.4975247378159	0.0	511.1510830978449	784.2584857991613	0.0	552.4262474803006	893.0295936364547	0.0	532.7829906999724	912.4253080325487	0.0	368.8074312213625	769.7874568844126	0.0	341.56752085527853	841.5863395075523	0.0	252.36919133721005	850.2180532019753	0.0
220	7.333333333333333	473.37427259448947	945.0069166024051	0.0	511.7895856082765	939.485470760274	0.0	602.1581662511628	1089.2380905275631	0.0	764.5353941802429	1091.001100703169	0.0	826.9123791526877	1156.3396422557685	0.0	835.5789681096653	1133.7772469824956	0.0	790.8189907663716	1087.5700737079344	0.0	434.9411642693941	965.687740969743	0.0	502.89966997506355	1155.7280249004941	0.0	551.6394697409181	1318.4068961717198	0.0	552.5164305623383	1337.3776549255094	0.0	538.9890032996332	1344.7714999197033	0.0	559.9960932703066	1342.434742309485	0.0	422.92194128475523	740.5102573376425	0.0	414.76587068710955	646.9312066279643	0.0	427.9863907034112	707.2010076147184	0.0	504.558821535084	782.1563523013753	0.0	561.7140862896863	881.068889550868	0.0	580.0608194414348	904.2045974881861	0.0	354.4014547508637	776.1992390058371	0.0	315.78791911179195	859.1176317254403	0.0	234.7530792267681	865.6413847441546	0.0
